<?xml version="1.0" standalone="no"?>
<!DOCTYPE svg PUBLIC "-//W3C//DTD SVG 20010904//EN"
 "http://www.w3.org/TR/2001/REC-SVG-20010904/DTD/svg10.dtd">
<svg version="1.0" xmlns="http://www.w3.org/2000/svg"
 width="267.000000pt" height="200.000000pt" viewBox="0 0 267.000000 200.000000"
 preserveAspectRatio="xMidYMid meet">

<g transform="translate(0.000000,200.000000) scale(0.100000,-0.100000)"
fill="#000000" stroke="none">
<path d="M517 1856 c-19 -28 -12 -39 14 -26 12 7 20 7 24 0 3 -5 -3 -10 -14
-10 -12 0 -21 -5 -21 -11 0 -5 -4 -7 -10 -4 -19 12 -11 -77 8 -91 15 -13 15
-13 0 -8 -15 5 -17 -1 -16 -45 1 -28 5 -48 11 -44 5 3 4 -5 -3 -17 -7 -13 -10
-40 -6 -64 8 -61 12 -96 15 -141 2 -33 4 -36 11 -20 6 12 7 -51 3 -164 -5
-150 -3 -183 7 -179 8 2 19 20 26 39 l12 34 2 -30 c0 -27 2 -28 12 -11 7 13 9
73 5 187 -6 193 -5 195 69 186 33 -3 54 -13 73 -32 14 -15 20 -25 14 -21 -7 4
-13 3 -13 -2 0 -5 13 -9 30 -9 35 0 47 24 23 44 -10 8 -13 12 -7 9 27 -13 32
24 33 204 0 227 -3 250 -35 250 -13 0 -24 -4 -24 -8 0 -4 -23 -6 -51 -5 -29 2
-59 1 -68 -3 -30 -13 -42 -13 -48 2 -9 23 -59 17 -76 -10z m93 -26 c0 -5 -5
-10 -11 -10 -5 0 -7 5 -4 10 3 6 8 10 11 10 2 0 4 -4 4 -10z m60 0 c0 -5 -5
-10 -11 -10 -5 0 -7 5 -4 10 3 6 8 10 11 10 2 0 4 -4 4 -10z m60 0 c0 -5 -4
-10 -10 -10 -5 0 -10 5 -10 10 0 6 5 10 10 10 6 0 10 -4 10 -10z m55 0 c3 -5
1 -10 -4 -10 -6 0 -11 5 -11 10 0 6 2 10 4 10 3 0 8 -4 11 -10z m-205 -40 c0
-5 -4 -10 -10 -10 -5 0 -10 5 -10 10 0 6 5 10 10 10 6 0 10 -4 10 -10z m60 0
c0 -5 -4 -10 -8 -10 -5 0 -13 -12 -19 -27 l-12 -28 6 29 c5 23 3 27 -8 21 -12
-8 -12 -6 0 8 15 19 41 23 41 7z m60 0 c0 -5 -4 -10 -10 -10 -5 0 -10 5 -10
10 0 6 5 10 10 10 6 0 10 -4 10 -10z m60 0 c0 -5 -4 -10 -10 -10 -5 0 -10 5
-10 10 0 6 5 10 10 10 6 0 10 -4 10 -10z m-201 -41 c-11 -6 -10 -9 4 -15 9 -3
17 -14 17 -23 0 -11 -7 -7 -25 14 -30 37 -31 45 -4 38 15 -4 17 -8 8 -14z
m166 11 c3 -5 1 -10 -4 -10 -6 0 -11 5 -11 10 0 6 2 10 4 10 3 0 8 -4 11 -10z
m60 0 c3 -5 1 -10 -4 -10 -6 0 -11 5 -11 10 0 6 2 10 4 10 3 0 8 -4 11 -10z
m-145 -40 c0 -5 -4 -10 -10 -10 -5 0 -10 5 -10 10 0 6 5 10 10 10 6 0 10 -4
10 -10z m60 0 c0 -5 -4 -10 -10 -10 -5 0 -10 5 -10 10 0 6 5 10 10 10 6 0 10
-4 10 -10z m60 0 c0 -5 -4 -10 -10 -10 -5 0 -10 5 -10 10 0 6 5 10 10 10 6 0
10 -4 10 -10z m-209 -66 c-14 -12 -28 -21 -30 -18 -2 2 7 13 20 25 17 15 19
19 7 15 -10 -3 -18 -2 -18 3 0 16 13 20 30 9 16 -10 15 -13 -9 -34z m59 36 c0
-5 -4 -10 -10 -10 -5 0 -10 5 -10 10 0 6 5 10 10 10 6 0 10 -4 10 -10z m54 1
c6 -9 -35 -24 -43 -16 -2 3 2 5 10 5 11 0 11 2 -1 10 -12 8 -11 10 7 10 12 0
24 -4 27 -9z m66 -5 c0 -3 -4 -8 -10 -11 -5 -3 -10 -1 -10 4 0 6 5 11 10 11 6
0 10 -2 10 -4z m60 0 c0 -3 -4 -8 -10 -11 -5 -3 -10 -1 -10 4 0 6 5 11 10 11
6 0 10 -2 10 -4z m-186 -31 c-3 -8 -9 -13 -13 -12 -4 1 -20 -11 -35 -28 -20
-22 -24 -24 -17 -8 9 18 57 63 67 63 2 0 1 -7 -2 -15z m41 -5 c3 -5 -1 -10 -9
-10 -9 0 -16 5 -16 10 0 6 4 10 9 10 6 0 13 -4 16 -10z m55 0 c0 -5 -4 -10
-10 -10 -5 0 -10 5 -10 10 0 6 5 10 10 10 6 0 10 -4 10 -10z m60 0 c0 -5 -4
-10 -10 -10 -5 0 -10 5 -10 10 0 6 5 10 10 10 6 0 10 -4 10 -10z m-147 -50
c-3 -11 -7 -20 -9 -20 -2 0 -4 9 -4 20 0 11 4 20 9 20 5 0 7 -9 4 -20z m57 10
c0 -5 -2 -10 -4 -10 -3 0 -8 5 -11 10 -3 6 -1 10 4 10 6 0 11 -4 11 -10z m60
0 c0 -5 -4 -10 -10 -10 -5 0 -10 5 -10 10 0 6 5 10 10 10 6 0 10 -4 10 -10z
m60 6 c0 -3 -4 -8 -10 -11 -5 -3 -10 -1 -10 4 0 6 5 11 10 11 6 0 10 -2 10 -4z
m-145 -36 c3 -5 -1 -10 -9 -10 -9 0 -16 5 -16 10 0 6 4 10 9 10 6 0 13 -4 16
-10z m55 0 c0 -5 -4 -10 -10 -10 -5 0 -10 5 -10 10 0 6 5 10 10 10 6 0 10 -4
10 -10z m60 0 c0 -5 -4 -10 -10 -10 -5 0 -10 5 -10 10 0 6 5 10 10 10 6 0 10
-4 10 -10z m-214 -30 c8 0 13 -4 9 -10 -10 -16 -35 1 -34 24 1 16 2 17 6 4 2
-10 11 -18 19 -18z m31 8 c-3 -8 -6 -5 -6 6 -1 11 2 17 5 13 3 -3 4 -12 1 -19z
m163 -6 c0 -5 -7 -9 -15 -9 -8 0 -12 4 -9 9 3 4 9 8 15 8 5 0 9 -4 9 -8z m-70
-12 c0 -5 -4 -10 -10 -10 -5 0 -10 5 -10 10 0 6 5 10 10 10 6 0 10 -4 10 -10z
m120 0 c0 -5 -4 -10 -10 -10 -5 0 -10 5 -10 10 0 6 5 10 10 10 6 0 10 -4 10
-10z m-191 -52 c2 -17 -37 -7 -55 14 -12 15 -13 18 -3 10 13 -10 19 -9 30 4
12 15 14 14 20 -3 4 -10 8 -21 8 -25z m86 -1 c19 -5 19 -5 -1 -6 -11 0 -31 11
-45 27 l-24 27 25 -22 c14 -11 34 -23 45 -26z m19 28 c-7 -16 -24 -21 -24 -6
0 8 7 13 27 20 1 1 0 -6 -3 -14z m23 -17 c-3 -7 -5 -2 -5 12 0 14 2 19 5 13 2
-7 2 -19 0 -25z m33 12 c0 -5 -4 -10 -10 -10 -5 0 -10 5 -10 10 0 6 5 10 10
10 6 0 10 -4 10 -10z m30 -40 c0 -5 -5 -10 -11 -10 -5 0 -7 -4 -4 -10 3 -5 0
-7 -9 -4 -12 5 -13 9 -3 20 14 16 27 18 27 4z m-225 -28 c-3 -3 -11 0 -18 7
-9 10 -8 11 6 5 10 -3 15 -9 12 -12z"/>
<path d="M568 1493 c7 -3 16 -2 19 1 4 3 -2 6 -13 5 -11 0 -14 -3 -6 -6z"/>
<path d="M968 1673 c-2 -115 0 -209 4 -211 4 -2 -4 -15 -17 -30 -27 -28 -31
-47 -15 -57 6 -3 10 -1 10 4 0 6 5 11 12 11 6 0 21 8 32 18 21 17 21 17 4 -3
-11 -14 -14 -25 -8 -35 5 -8 7 -25 4 -36 -3 -12 -1 -25 5 -28 20 -13 12 -72
-13 -99 -22 -24 -24 -34 -25 -142 -1 -64 -2 -120 -2 -123 -3 -22 2 -42 10 -37
6 3 15 -3 21 -12 9 -15 10 -12 5 15 -5 24 -3 32 8 32 27 0 42 183 30 368 -10
140 -18 128 89 135 38 2 65 10 80 23 l23 19 -20 -24 c-18 -21 -20 -40 -23
-222 -3 -170 -1 -201 12 -215 15 -14 16 -11 16 30 0 32 4 45 13 44 9 -2 12 42
12 194 0 109 -3 198 -7 198 -3 0 -1 16 5 35 7 24 7 42 0 57 -6 14 -6 35 -1 53
11 41 -1 153 -19 171 -21 20 -22 16 -23 -47 0 -30 0 -67 0 -84 0 -21 3 -26 9
-17 6 10 10 7 13 -13 l5 -26 -26 24 c-32 30 -64 47 -88 47 -12 -1 -6 -7 17
-19 56 -30 72 -54 74 -110 0 -28 -3 -47 -8 -43 -5 3 -7 -2 -3 -11 3 -9 -1 -18
-9 -21 -24 -9 -44 -7 -44 5 0 5 4 8 9 4 6 -3 10 3 10 12 0 10 3 43 7 74 8 66
-11 94 -21 32 -9 -53 -23 -87 -46 -112 -29 -30 -57 -27 -61 7 -2 16 -8 26 -16
24 -8 -1 -11 2 -7 8 3 5 1 10 -6 10 -7 0 -9 3 -6 6 4 4 13 1 22 -6 13 -11 15
-1 17 81 2 103 1 114 -6 176 -5 49 -13 66 -27 58 -5 -4 -9 -1 -9 4 0 6 -4 11
-9 11 -6 0 -11 -86 -13 -207z m39 -705 c-3 -7 -5 -2 -5 12 0 14 2 19 5 13 2
-7 2 -19 0 -25z"/>
<path d="M1126 1760 c4 -19 11 -46 17 -60 8 -20 11 -21 14 -8 2 9 -5 36 -16
60 l-21 43 6 -35z"/>
<path d="M1330 1621 c0 -6 5 -11 10 -11 6 0 9 -12 9 -27 -4 -66 1 -83 21 -83
17 0 20 7 20 50 0 38 4 50 15 50 18 0 20 -41 5 -71 -9 -16 -7 -19 9 -19 21 0
29 16 33 68 4 53 23 30 22 -26 -1 -46 2 -52 20 -52 19 0 21 5 18 50 -3 39 0
51 13 56 22 9 40 -10 30 -33 -4 -10 -9 -30 -11 -45 -3 -23 0 -28 17 -28 11 0
18 4 15 8 -2 4 0 14 5 22 7 12 10 11 15 -7 5 -18 13 -22 45 -21 36 0 39 2 39
29 0 21 4 27 14 23 8 -3 16 -15 18 -27 2 -12 11 -23 21 -25 14 -3 17 4 17 46
0 28 3 57 6 65 4 11 -1 13 -20 10 -17 -4 -26 -12 -26 -24 0 -25 -17 -33 -24
-12 -3 10 -18 24 -33 31 -36 16 -52 15 -28 -3 19 -15 30 -91 14 -101 -8 -5
-29 51 -29 79 0 13 -5 17 -15 14 -8 -4 -17 -1 -21 5 -4 6 -23 8 -47 5 -23 -3
-48 0 -59 6 -15 10 -20 9 -27 -2 -6 -9 -18 -12 -36 -7 -15 4 -38 9 -51 12 -15
4 -24 2 -24 -5z"/>
<path d="M1777 1618 c-16 -10 -18 -95 -3 -106 9 -8 41 -9 82 -4 17 3 32 46 27
76 -4 22 -2 27 8 24 8 -3 14 -16 15 -29 2 -73 4 -79 24 -79 15 0 20 7 20 26 0
14 4 23 10 19 6 -3 10 -15 10 -26 0 -12 7 -19 20 -19 18 0 20 7 20 55 0 42 3
55 15 55 8 0 15 -7 15 -15 0 -8 -5 -15 -10 -15 -7 0 -7 -7 1 -21 6 -12 8 -30
6 -41 -5 -19 -2 -20 36 -14 52 9 57 14 64 65 5 38 4 41 -17 41 -12 0 -40 5
-61 11 -51 16 -99 -2 -91 -33 3 -14 1 -19 -6 -14 -7 4 -12 14 -12 22 0 8 -8
14 -18 14 -10 0 -22 3 -26 8 -10 9 -114 9 -129 0z m73 -47 c0 -38 -25 -60 -46
-39 -23 23 -8 68 22 68 20 0 24 -5 24 -29z m250 -5 c0 -18 -7 -39 -15 -46 -13
-11 -15 -6 -15 34 0 34 4 46 15 46 10 0 15 -10 15 -34z"/>
<path d="M2155 1565 l0 -62 38 0 c21 0 41 5 44 11 12 18 13 40 3 46 -14 8 0
50 16 50 18 0 28 -25 18 -42 -4 -6 -9 -25 -11 -40 -2 -23 1 -28 18 -28 11 0
18 4 15 8 -2 4 0 14 5 22 7 12 10 11 15 -6 5 -19 13 -22 57 -22 50 0 94 18 80
31 -3 4 -12 2 -19 -4 -22 -18 -46 -2 -42 28 2 20 9 29 25 31 27 4 57 -38 48
-68 -5 -17 -2 -20 19 -20 20 0 26 5 26 23 l1 22 18 -22 c11 -13 26 -23 35 -23
11 0 6 9 -16 29 l-32 28 29 26 c25 22 27 26 11 27 -10 0 -25 -8 -32 -17 -11
-15 -13 -15 -14 -3 0 21 -55 44 -76 32 -9 -5 -25 -7 -35 -5 -26 7 -53 -39 -45
-78 3 -17 2 -28 -4 -24 -5 3 -12 26 -16 50 -3 25 -11 45 -18 44 -6 -1 -18 0
-26 4 -8 3 -42 7 -75 10 l-60 5 0 -63z m315 30 c0 -8 -4 -15 -8 -15 -5 0 -9 7
-9 15 0 8 4 15 9 15 4 0 8 -7 8 -15z m-260 1 c0 -3 -4 -8 -10 -11 -5 -3 -10
-1 -10 4 0 6 5 11 10 11 6 0 10 -2 10 -4z m5 -54 c0 -18 -20 -15 -23 4 -3 10
1 15 10 12 7 -3 13 -10 13 -16z"/>
<path d="M1362 1401 c-9 -5 -12 -25 -10 -57 l3 -49 46 -3 c40 -3 48 0 63 23
12 19 14 30 6 44 -12 24 6 40 23 21 9 -10 9 -14 0 -17 -10 -3 -10 -10 -2 -24
5 -11 7 -23 5 -28 -7 -11 41 -24 54 -16 5 3 19 1 31 -6 20 -10 21 -9 16 11 -3
13 -3 35 -1 50 5 21 10 26 28 23 17 -4 22 -12 23 -38 1 -39 9 -55 27 -55 15 0
29 52 20 74 -4 10 3 16 20 18 18 2 23 7 17 16 -10 17 -123 19 -154 3 -19 -10
-22 -19 -19 -43 4 -23 1 -29 -9 -26 -8 3 -14 17 -14 31 1 15 -4 27 -11 27 -6
0 -17 6 -23 14 -13 16 -117 21 -139 7z m66 -20 c8 -5 12 -21 10 -37 -2 -21 -9
-30 -26 -32 -28 -4 -39 20 -24 54 12 26 19 29 40 15z"/>
<path d="M1758 1399 c-11 -7 -13 -93 -3 -109 14 -22 35 -9 35 20 0 24 4 30 23
31 l22 0 -22 11 c-30 15 -29 28 3 28 14 0 23 4 19 10 -10 17 22 11 36 -7 11
-13 11 -17 2 -20 -9 -3 -10 -10 -3 -23 5 -10 7 -25 4 -33 -5 -14 21 -31 34
-23 4 2 5 27 4 54 -3 41 -8 52 -25 58 -28 9 -115 11 -129 3z"/>
<path d="M1988 1402 c-43 -2 -58 -7 -58 -17 0 -9 10 -15 25 -15 14 0 25 -4 25
-10 0 -5 -5 -10 -10 -10 -7 0 -7 -7 0 -20 6 -11 8 -24 6 -29 -7 -11 22 -23 35
-15 5 3 7 10 3 15 -3 5 0 17 7 25 10 13 10 17 0 24 -17 10 -3 17 35 18 28 1
30 -2 31 -35 1 -39 15 -58 36 -50 10 4 14 18 12 46 -2 37 0 41 22 41 15 0 23
5 21 13 -5 14 -102 24 -190 19z"/>
<path d="M2203 1403 c-8 -3 -8 -101 0 -109 14 -14 65 -13 82 1 19 15 19 16
-13 9 -29 -5 -33 -3 -30 12 2 10 14 21 28 25 l25 7 -27 1 c-34 1 -39 31 -5 31
12 0 31 3 43 6 19 5 21 1 21 -40 1 -51 8 -66 29 -66 9 0 14 10 14 28 l0 27 20
-25 c16 -22 27 -25 79 -25 54 0 60 2 64 22 5 25 -7 39 -37 44 -31 6 -32 29 -1
29 15 0 24 4 20 10 -3 6 -22 10 -41 10 -29 0 -34 -3 -34 -24 0 -17 9 -27 30
-36 17 -7 29 -18 27 -24 -6 -18 -63 -19 -81 -1 -14 15 -14 18 -1 31 18 19 19
40 3 51 -12 7 -195 12 -215 6z m195 -35 c-6 -18 -28 -21 -28 -4 0 9 7 16 16
16 9 0 14 -5 12 -12z"/>
<path d="M860 1361 c0 -17 4 -32 9 -36 12 -7 23 28 15 49 -10 26 -24 18 -24
-13z"/>
<path d="M783 1353 c-16 -6 -18 -106 -3 -134 13 -23 3 -25 -20 -4 -16 14 -18
10 -24 -54 -3 -38 -2 -80 3 -93 8 -18 10 -19 10 -5 1 27 21 10 21 -19 0 -27
15 -32 24 -8 3 9 6 45 6 81 l0 66 21 -27 c24 -31 36 -28 19 3 -10 20 -8 21 26
21 33 0 36 -2 30 -25 -9 -34 18 -23 33 13 18 48 18 66 -1 105 -14 28 -24 37
-43 37 -24 0 -25 -3 -25 -54 0 -39 -4 -55 -15 -60 -12 -4 -15 5 -15 47 0 37
-3 48 -10 37 -5 -8 -10 -13 -11 -10 0 3 -3 23 -5 45 -6 45 -5 44 -21 38z m119
-105 c5 -39 2 -47 -13 -51 -15 -4 -17 -2 -9 13 6 10 10 35 10 56 0 49 6 41 12
-18z"/>
<path d="M973 1265 c0 -22 2 -30 4 -17 2 12 2 30 0 40 -3 9 -5 -1 -4 -23z"/>
</g>
</svg>
